General

Format                           : MPEG-4
Format profile                   : Base Media
Codec ID                         : isom
File size                        : 127 MiB
Duration                         : 4mn 19s
Overall bit rate                 : 4 102 Kbps
Encoded date                     : UTC 2012-02-26 17:34:00
Tagged date                      : UTC 2012-02-26 17:34:00

Video
ID                               : 1
Format                           : AVC
Format/Info                      : Advanced Video Codec
Format profile                   : High@L3.0
Format settings, CABAC           : Yes
Format settings, ReFrames        : 2 frames
Codec ID                         : avc1
Codec ID/Info                    : Advanced Video Coding
Duration                         : 4mn 19s
Bit rate mode                    : Variable
Bit rate                         : 4 147 Kbps
Maximum bit rate                 : 8 140 Kbps
Width                            : 640 pixels
Height                           : 480 pixels
Display aspect ratio             : 4:3
Frame rate mode                  : Constant
Frame rate                       : 29.970 fps
Color space                      : YUV
Chroma subsampling               : 4:2:0
Bit depth                        : 8 bits
Scan type                        : Progressive
Bits/(Pixel*Frame)               : 0.450
Stream size                      : 125 MiB (98%)


Audio
ID                               : 2
Format                           : AAC
Format/Info                      : Advanced Audio Codec
Format profile                   : LC
Codec ID                         : 40
Duration                         : 4mn 19s
Bit rate mode                    : Variable
Bit rate                         : 59.4 Kbps
Maximum bit rate                 : 65.8 Kbps
Channel(s)                       : 2 channels
Channel positions                : Front: L R
Sampling rate                    : 44.1 KHz
Compression mode                 : Lossy
Stream size                      : 1.83 MiB (1%)
